<svg width="100" height="100" viewBox="0 0 100 100" fill="none" xmlns="http://www.w3.org/2000/svg">
<path fill-rule="evenodd" clip-rule="evenodd" d="M0 52.9608C26.6871 51.9109 48 29.9445 48 3C48 30.6143 70.3857 53 98 53C71.3929 53 49.64 73.7825 48.0885 100H47.9115C46.399 74.4425 25.6895 54.0498 0 53.0392V52.9608ZM100 53.0392C99.3365 53.0131 98.6698 53 98 53C98.4418 53 98.8823 52.9943 99.3214 52.9829C99.3984 52.9809 99.4753 52.9788 99.5522 52.9764C99.7017 52.9719 99.8508 52.9666 100 52.9608V53.0392ZM48 3C48 1.99274 48.0298 0.992493 48.0885 0H47.9115C47.9702 0.992493 48 1.99274 48 3Z" fill="url(#paint0_linear_150_249)"/>
<defs>
<linearGradient id="paint0_linear_150_249" x1="0.0475285" y1="40.3846" x2="100" y2="40.5" gradientUnits="userSpaceOnUse">
<stop stop-color="#688AE9"/>
<stop offset="1" stop-color="#C66D7B"/>
</linearGradient>
</defs>
</svg>
