<svg width="45" height="215" viewBox="0 0 200 215" fill="none" xmlns="http://www.w3.org/2000/svg">
<g clip-path="url(#clip0_136_237)">
<path d="M100.249 21L21 70.3226L100.249 120L180 70.3226L100.249 21Z" stroke="#0F0F0E"/>
<path d="M100.385 48L64 70.4194L100.385 93L137 70.4194L100.385 48Z" stroke="#0F0F0E"/>
<path d="M100.5 48V93" stroke="#0F0F0E"/>
<path d="M100.249 21L21 70.3226L100.249 120L180 70.3226L100.249 21Z" fill="white" stroke="#0F0F0E"/>
<path d="M100.385 48L64 70.4194L100.385 93L137 70.4194L100.385 48Z" fill="#0F0F0E" stroke="#0F0F0E"/>
<path d="M100.5 47V94" stroke="white" stroke-width="0.2"/>
<path d="M182 143L180.5 71L100.915 119.078L101.253 199.424L182 143Z" fill="#0F0F0E" fill-opacity="0.95" stroke="#0F0F0E" stroke-opacity="0.95"/>
<path d="M20.5603 151L100.44 199.227L100 121L20.5603 71.3686L20.5603 151Z" fill="#0F0F0E" stroke="#0F0F0E"/>
</g>
<defs>
<clipPath id="clip0_136_237">
<rect width="200" height="215" fill="white"/>
</clipPath>
</defs>
</svg>
